<mxfile host="app.diagrams.net" agent="Mozilla/5.0 (Windows NT 10.0; Win64; x64) AppleWebKit/537.36 (KHTML, like Gecko) Chrome/140.0.0.0 Safari/537.36 Edg/140.0.0.0" version="28.2.5">
  <diagram id="-teP9IbRkN0PEPyZOTxG" name="ページ1">
    <mxGraphModel dx="1017" dy="460" grid="1" gridSize="10" guides="1" tooltips="1" connect="1" arrows="1" fold="1" page="1" pageScale="1" pageWidth="827" pageHeight="1169" math="0" shadow="0">
      <root>
        <mxCell id="0" />
        <mxCell id="1" parent="0" />
        <mxCell id="sFRxeDE_6suIDNdowpsp-2" value="顧客" style="shape=umlActor;verticalLabelPosition=bottom;verticalAlign=top;html=1;outlineConnect=0;" parent="1" vertex="1">
          <mxGeometry x="41" y="160" width="30" height="60" as="geometry" />
        </mxCell>
        <mxCell id="sFRxeDE_6suIDNdowpsp-5" value="商品詳細画面" style="shape=umlBoundary;whiteSpace=wrap;html=1;" parent="1" vertex="1">
          <mxGeometry x="160" y="120" width="60" height="60" as="geometry" />
        </mxCell>
        <mxCell id="sFRxeDE_6suIDNdowpsp-6" value="" style="endArrow=open;endFill=1;endSize=12;html=1;rounded=0;" parent="1" edge="1">
          <mxGeometry width="160" relative="1" as="geometry">
            <mxPoint x="77" y="177" as="sourcePoint" />
            <mxPoint x="156" y="157" as="targetPoint" />
          </mxGeometry>
        </mxCell>
        <mxCell id="sFRxeDE_6suIDNdowpsp-8" value="カートに&lt;div&gt;追加&lt;/div&gt;" style="ellipse;shape=umlControl;whiteSpace=wrap;html=1;" parent="1" vertex="1">
          <mxGeometry x="310" y="70" width="60" height="70" as="geometry" />
        </mxCell>
        <mxCell id="sFRxeDE_6suIDNdowpsp-9" value="" style="endArrow=open;endFill=1;endSize=12;html=1;rounded=0;" parent="1" edge="1">
          <mxGeometry width="160" relative="1" as="geometry">
            <mxPoint x="225" y="170" as="sourcePoint" />
            <mxPoint x="305" y="220" as="targetPoint" />
          </mxGeometry>
        </mxCell>
        <mxCell id="sFRxeDE_6suIDNdowpsp-10" value="カート&lt;div&gt;内情報&lt;/div&gt;" style="ellipse;shape=umlEntity;whiteSpace=wrap;html=1;" parent="1" vertex="1">
          <mxGeometry x="462" y="14" width="60" height="60" as="geometry" />
        </mxCell>
        <mxCell id="sFRxeDE_6suIDNdowpsp-12" value="" style="endArrow=open;endFill=1;endSize=12;html=1;rounded=0;" parent="1" edge="1">
          <mxGeometry width="160" relative="1" as="geometry">
            <mxPoint x="375" y="93" as="sourcePoint" />
            <mxPoint x="455" y="63" as="targetPoint" />
          </mxGeometry>
        </mxCell>
        <mxCell id="sFRxeDE_6suIDNdowpsp-15" value="&lt;span style=&quot;font-weight: normal;&quot;&gt;&lt;font style=&quot;font-size: 18px;&quot;&gt;カートに追加&lt;/font&gt;&lt;/span&gt;" style="text;align=center;fontStyle=1;verticalAlign=middle;spacingLeft=3;spacingRight=3;strokeColor=none;rotatable=0;points=[[0,0.5],[1,0.5]];portConstraint=eastwest;html=1;" parent="1" vertex="1">
          <mxGeometry x="41" y="20" width="109" height="60" as="geometry" />
        </mxCell>
        <mxCell id="sFRxeDE_6suIDNdowpsp-16" value="" style="endArrow=block;startArrow=block;endFill=1;startFill=1;html=1;rounded=0;" parent="1" edge="1">
          <mxGeometry width="160" relative="1" as="geometry">
            <mxPoint x="230" y="140" as="sourcePoint" />
            <mxPoint x="300" y="120" as="targetPoint" />
          </mxGeometry>
        </mxCell>
        <mxCell id="sFRxeDE_6suIDNdowpsp-18" value="在庫不足画面" style="ellipse;shape=umlControl;whiteSpace=wrap;html=1;" parent="1" vertex="1">
          <mxGeometry x="310" y="200" width="60" height="70" as="geometry" />
        </mxCell>
        <mxCell id="sFRxeDE_6suIDNdowpsp-19" value="&lt;span style=&quot;font-weight: normal;&quot;&gt;在庫不足の場合&lt;/span&gt;" style="text;align=center;fontStyle=1;verticalAlign=middle;spacingLeft=3;spacingRight=3;strokeColor=none;rotatable=0;points=[[0,0.5],[1,0.5]];portConstraint=eastwest;html=1;" parent="1" vertex="1">
          <mxGeometry x="190" y="200" width="80" height="26" as="geometry" />
        </mxCell>
        <mxCell id="enhv0GMlmD5y76GijMgr-5" value="&lt;span style=&quot;font-weight: normal;&quot;&gt;ログインして&lt;/span&gt;&lt;div&gt;&lt;span style=&quot;font-weight: normal;&quot;&gt;いない場合&lt;/span&gt;&lt;/div&gt;" style="text;align=center;fontStyle=1;verticalAlign=middle;spacingLeft=3;spacingRight=3;strokeColor=none;rotatable=0;points=[[0,0.5],[1,0.5]];portConstraint=eastwest;html=1;" vertex="1" parent="1">
          <mxGeometry x="331" y="160" width="80" height="26" as="geometry" />
        </mxCell>
        <mxCell id="enhv0GMlmD5y76GijMgr-6" value="" style="endArrow=open;endFill=1;endSize=12;html=1;rounded=0;" edge="1" parent="1">
          <mxGeometry width="160" relative="1" as="geometry">
            <mxPoint x="374" y="140" as="sourcePoint" />
            <mxPoint x="454" y="190" as="targetPoint" />
          </mxGeometry>
        </mxCell>
        <mxCell id="enhv0GMlmD5y76GijMgr-7" value="ログイン画面" style="shape=umlBoundary;whiteSpace=wrap;html=1;" vertex="1" parent="1">
          <mxGeometry x="462" y="160" width="60" height="60" as="geometry" />
        </mxCell>
        <mxCell id="enhv0GMlmD5y76GijMgr-8" value="&lt;span style=&quot;font-weight: normal;&quot;&gt;「在庫が不足してます&lt;/span&gt;&lt;span style=&quot;font-weight: normal; background-color: transparent; color: light-dark(rgb(0, 0, 0), rgb(255, 255, 255));&quot;&gt;」&lt;/span&gt;&lt;div&gt;&lt;span style=&quot;font-weight: normal; background-color: transparent; color: light-dark(rgb(0, 0, 0), rgb(255, 255, 255));&quot;&gt;と出力&lt;/span&gt;&lt;/div&gt;" style="text;align=center;fontStyle=1;verticalAlign=middle;spacingLeft=3;spacingRight=3;strokeColor=none;rotatable=0;points=[[0,0.5],[1,0.5]];portConstraint=eastwest;html=1;" vertex="1" parent="1">
          <mxGeometry x="331" y="280" width="80" height="26" as="geometry" />
        </mxCell>
        <mxCell id="enhv0GMlmD5y76GijMgr-10" value="" style="endArrow=open;endFill=1;endSize=12;html=1;rounded=0;" edge="1" parent="1">
          <mxGeometry width="160" relative="1" as="geometry">
            <mxPoint x="380" y="120" as="sourcePoint" />
            <mxPoint x="450" y="120" as="targetPoint" />
          </mxGeometry>
        </mxCell>
        <mxCell id="enhv0GMlmD5y76GijMgr-11" value="カートに&lt;div&gt;追加完了&lt;/div&gt;" style="ellipse;shape=umlControl;whiteSpace=wrap;html=1;" vertex="1" parent="1">
          <mxGeometry x="468" y="80" width="60" height="70" as="geometry" />
        </mxCell>
        <mxCell id="enhv0GMlmD5y76GijMgr-12" value="" style="endArrow=open;endFill=1;endSize=12;html=1;rounded=0;" edge="1" parent="1">
          <mxGeometry width="160" relative="1" as="geometry">
            <mxPoint x="539" y="120" as="sourcePoint" />
            <mxPoint x="609" y="120" as="targetPoint" />
          </mxGeometry>
        </mxCell>
        <mxCell id="enhv0GMlmD5y76GijMgr-13" value="商品一覧画面" style="shape=umlBoundary;whiteSpace=wrap;html=1;" vertex="1" parent="1">
          <mxGeometry x="620" y="90" width="60" height="60" as="geometry" />
        </mxCell>
      </root>
    </mxGraphModel>
  </diagram>
</mxfile>
